<?xml version="1.0" encoding="UTF-8" standalone="no"?>
<!DOCTYPE svg PUBLIC "-//W3C//DTD SVG 1.1//EN"
 "http://www.w3.org/Graphics/SVG/1.1/DTD/svg11.dtd">
<!-- Generated by graphviz version 2.43.0 (0)
 -->
<!-- Title: trie Pages: 1 -->
<svg width="107pt" height="732pt"
 viewBox="0.00 0.00 107.47 731.79" xmlns="http://www.w3.org/2000/svg" xmlns:xlink="http://www.w3.org/1999/xlink">
<g id="graph0" class="graph" transform="scale(1 1) rotate(0) translate(4 727.79)">
<title>trie</title>
<polygon fill="white" stroke="transparent" points="-4,4 -4,-727.79 103.47,-727.79 103.47,4 -4,4"/>
<!-- node_0 -->
<g id="node1" class="node">
<title>node_0</title>
<ellipse fill="none" stroke="black" cx="54.62" cy="-705.79" rx="18" ry="18"/>
<text text-anchor="middle" x="54.62" y="-702.09" font-family="Times,serif" font-size="14.00">.</text>
</g>
<!-- node_1 -->
<g id="node2" class="node">
<title>node_1</title>
<ellipse fill="none" stroke="black" cx="54.62" cy="-618.79" rx="18" ry="18"/>
<text text-anchor="middle" x="54.62" y="-615.09" font-family="Times,serif" font-size="14.00">.</text>
</g>
<!-- node_0&#45;&gt;node_1 -->
<g id="edge1" class="edge">
<title>node_0&#45;&gt;node_1</title>
<path fill="none" stroke="black" d="M37.95,-698.61C25.73,-693.09 10.04,-683.72 2.62,-669.79 -5.92,-653.74 11.93,-639.82 29,-630.77"/>
<polygon fill="black" stroke="black" points="30.78,-633.8 38.23,-626.26 27.71,-627.51 30.78,-633.8"/>
<text text-anchor="middle" x="9.62" y="-658.59" font-family="Times,serif" font-size="14.00">m</text>
</g>
<!-- node_0&#45;&gt;node_1 -->
<g id="edge6" class="edge">
<title>node_0&#45;&gt;node_1</title>
<path fill="none" stroke="black" d="M46.5,-689.55C43.74,-683.56 41,-676.52 39.62,-669.79 37.9,-661.42 39.48,-652.44 42.16,-644.43"/>
<polygon fill="black" stroke="black" points="45.5,-645.51 45.98,-634.92 39.01,-642.9 45.5,-645.51"/>
<text text-anchor="middle" x="44.12" y="-658.59" font-family="Times,serif" font-size="14.00">a</text>
</g>
<!-- node_0&#45;&gt;node_1 -->
<g id="edge9" class="edge">
<title>node_0&#45;&gt;node_1</title>
<path fill="none" stroke="black" d="M54.62,-687.59C54.62,-675.95 54.62,-660.33 54.62,-647.02"/>
<polygon fill="black" stroke="black" points="58.12,-646.96 54.62,-636.96 51.12,-646.96 58.12,-646.96"/>
<text text-anchor="middle" x="58.62" y="-658.59" font-family="Times,serif" font-size="14.00">s</text>
</g>
<!-- node_0&#45;&gt;node_1 -->
<g id="edge13" class="edge">
<title>node_0&#45;&gt;node_1</title>
<path fill="none" stroke="black" d="M61.25,-689.04C63.42,-683.12 65.54,-676.25 66.62,-669.79 67.97,-661.7 66.81,-652.99 64.76,-645.14"/>
<polygon fill="black" stroke="black" points="68.05,-643.92 61.7,-635.43 61.37,-646.02 68.05,-643.92"/>
<text text-anchor="middle" x="69.62" y="-658.59" font-family="Times,serif" font-size="14.00">f</text>
</g>
<!-- node_2 -->
<g id="node3" class="node">
<title>node_2</title>
<ellipse fill="none" stroke="black" cx="54.62" cy="-531.79" rx="18" ry="18"/>
<text text-anchor="middle" x="54.62" y="-528.09" font-family="Times,serif" font-size="14.00">.</text>
</g>
<!-- node_1&#45;&gt;node_2 -->
<g id="edge2" class="edge">
<title>node_1&#45;&gt;node_2</title>
<path fill="none" stroke="black" d="M38.23,-610.24C27.66,-604.4 14.77,-595.19 8.62,-582.79 1.38,-568.17 15.38,-554.75 29.8,-545.51"/>
<polygon fill="black" stroke="black" points="31.79,-548.4 38.64,-540.31 28.24,-542.36 31.79,-548.4"/>
<text text-anchor="middle" x="13.12" y="-571.59" font-family="Times,serif" font-size="14.00">o</text>
</g>
<!-- node_1&#45;&gt;node_2 -->
<g id="edge7" class="edge">
<title>node_1&#45;&gt;node_2</title>
<path fill="none" stroke="black" d="M46.95,-602.16C43.05,-592.37 39.53,-579.44 41.62,-567.79 42.21,-564.53 43.07,-561.19 44.09,-557.91"/>
<polygon fill="black" stroke="black" points="47.39,-559.08 47.44,-548.48 40.79,-556.73 47.39,-559.08"/>
<text text-anchor="middle" x="45.62" y="-571.59" font-family="Times,serif" font-size="14.00">s</text>
</g>
<!-- node_1&#45;&gt;node_2 -->
<g id="edge10" class="edge">
<title>node_1&#45;&gt;node_2</title>
<path fill="none" stroke="black" d="M54.62,-600.59C54.62,-588.95 54.62,-573.33 54.62,-560.02"/>
<polygon fill="black" stroke="black" points="58.12,-559.96 54.62,-549.96 51.12,-559.96 58.12,-559.96"/>
<text text-anchor="middle" x="59.62" y="-571.59" font-family="Times,serif" font-size="14.00">h</text>
</g>
<!-- node_1&#45;&gt;node_2 -->
<g id="edge14" class="edge">
<title>node_1&#45;&gt;node_2</title>
<path fill="none" stroke="black" d="M62.35,-602.14C64.88,-596.23 67.36,-589.34 68.62,-582.79 70.23,-574.45 68.75,-565.47 66.25,-557.46"/>
<polygon fill="black" stroke="black" points="69.47,-556.08 62.69,-547.95 62.92,-558.54 69.47,-556.08"/>
<text text-anchor="middle" x="73.62" y="-571.59" font-family="Times,serif" font-size="14.00">u</text>
</g>
<!-- node_3 -->
<g id="node4" class="node">
<title>node_3</title>
<ellipse fill="none" stroke="black" cx="54.62" cy="-444.79" rx="18" ry="18"/>
<text text-anchor="middle" x="54.62" y="-441.09" font-family="Times,serif" font-size="14.00">.</text>
</g>
<!-- node_2&#45;&gt;node_3 -->
<g id="edge3" class="edge">
<title>node_2&#45;&gt;node_3</title>
<path fill="none" stroke="black" d="M38.77,-522.36C29.27,-516.35 18.02,-507.3 12.62,-495.79 6.25,-482.19 17.71,-469.28 30.26,-459.98"/>
<polygon fill="black" stroke="black" points="32.57,-462.65 38.92,-454.16 28.67,-456.84 32.57,-462.65"/>
<text text-anchor="middle" x="16.12" y="-484.59" font-family="Times,serif" font-size="14.00">r</text>
</g>
<!-- node_2&#45;&gt;node_3 -->
<g id="edge8" class="edge">
<title>node_2&#45;&gt;node_3</title>
<path fill="none" stroke="black" d="M47.44,-515.09C45.09,-509.17 42.79,-502.29 41.62,-495.79 40.16,-487.68 41.42,-478.96 43.64,-471.11"/>
<polygon fill="black" stroke="black" points="47.03,-472.01 46.95,-461.41 40.41,-469.74 47.03,-472.01"/>
<text text-anchor="middle" x="45.62" y="-484.59" font-family="Times,serif" font-size="14.00">s</text>
</g>
<!-- node_2&#45;&gt;node_3 -->
<g id="edge11" class="edge">
<title>node_2&#45;&gt;node_3</title>
<path fill="none" stroke="black" d="M54.62,-513.59C54.62,-501.95 54.62,-486.33 54.62,-473.02"/>
<polygon fill="black" stroke="black" points="58.12,-472.96 54.62,-462.96 51.12,-472.96 58.12,-472.96"/>
<text text-anchor="middle" x="57.12" y="-484.59" font-family="Times,serif" font-size="14.00">i</text>
</g>
<!-- node_2&#45;&gt;node_3 -->
<g id="edge15" class="edge">
<title>node_2&#45;&gt;node_3</title>
<path fill="none" stroke="black" d="M59.79,-514.22C61.35,-508.45 62.85,-501.89 63.62,-495.79 64.59,-488.09 63.84,-479.77 62.42,-472.18"/>
<polygon fill="black" stroke="black" points="65.82,-471.36 60.18,-462.39 59,-472.91 65.82,-471.36"/>
<text text-anchor="middle" x="67.62" y="-484.59" font-family="Times,serif" font-size="14.00">c</text>
</g>
<!-- node_4 -->
<g id="node5" class="node">
<title>node_4</title>
<ellipse fill="none" stroke="black" cx="54.62" cy="-345.24" rx="30.59" ry="30.59"/>
<text text-anchor="middle" x="54.62" y="-341.54" font-family="Times,serif" font-size="14.00">fuck</text>
</g>
<!-- node_3&#45;&gt;node_4 -->
<g id="edge4" class="edge">
<title>node_3&#45;&gt;node_4</title>
<path fill="none" stroke="black" d="M40.92,-432.67C34.34,-426.43 27.13,-418.05 23.62,-408.79 21.26,-402.55 21.72,-400.18 23.62,-393.79 25.2,-388.47 27.58,-383.2 30.34,-378.2"/>
<polygon fill="black" stroke="black" points="33.39,-379.92 35.61,-369.56 27.41,-376.28 33.39,-379.92"/>
<text text-anchor="middle" x="28.12" y="-397.59" font-family="Times,serif" font-size="14.00">o</text>
</g>
<!-- node_3&#45;&gt;node_4 -->
<g id="edge12" class="edge">
<title>node_3&#45;&gt;node_4</title>
<path fill="none" stroke="black" d="M54.62,-426.35C54.62,-415.26 54.62,-400.41 54.62,-386.52"/>
<polygon fill="black" stroke="black" points="58.12,-386.16 54.62,-376.16 51.12,-386.16 58.12,-386.16"/>
<text text-anchor="middle" x="58.12" y="-397.59" font-family="Times,serif" font-size="14.00">t</text>
</g>
<!-- node_3&#45;&gt;node_4 -->
<g id="edge16" class="edge">
<title>node_3&#45;&gt;node_4</title>
<path fill="none" stroke="black" d="M59.22,-427.18C60.6,-421.41 61.94,-414.86 62.62,-408.79 63.48,-401.15 63.27,-392.99 62.51,-385.18"/>
<polygon fill="black" stroke="black" points="65.97,-384.65 61.23,-375.18 59.02,-385.54 65.97,-384.65"/>
<text text-anchor="middle" x="67.12" y="-397.59" font-family="Times,serif" font-size="14.00">k</text>
</g>
<!-- node_5 -->
<g id="node6" class="node">
<title>node_5</title>
<ellipse fill="none" stroke="black" cx="54.62" cy="-245.69" rx="18" ry="18"/>
<text text-anchor="middle" x="54.62" y="-241.99" font-family="Times,serif" font-size="14.00">.</text>
</g>
<!-- node_4&#45;&gt;node_5 -->
<g id="edge5" class="edge">
<title>node_4&#45;&gt;node_5</title>
<path fill="none" stroke="black" d="M42.75,-316.92C39.4,-306 37.24,-293.29 39.62,-281.69 40.33,-278.22 41.41,-274.67 42.66,-271.22"/>
<polygon fill="black" stroke="black" points="45.91,-272.51 46.5,-261.93 39.44,-269.83 45.91,-272.51"/>
<text text-anchor="middle" x="44.62" y="-285.49" font-family="Times,serif" font-size="14.00">n</text>
</g>
<!-- node_4&#45;&gt;node_5 -->
<g id="edge17" class="edge">
<title>node_4&#45;&gt;node_5</title>
<path fill="none" stroke="black" d="M54.62,-314.44C54.62,-301.61 54.62,-286.71 54.62,-274.16"/>
<polygon fill="black" stroke="black" points="58.12,-273.84 54.62,-263.84 51.12,-273.84 58.12,-273.84"/>
<text text-anchor="middle" x="57.12" y="-285.49" font-family="Times,serif" font-size="14.00">i</text>
</g>
<!-- node_6 -->
<g id="node7" class="node">
<title>node_6</title>
<ellipse fill="none" stroke="black" cx="54.62" cy="-158.69" rx="18" ry="18"/>
<text text-anchor="middle" x="54.62" y="-154.99" font-family="Times,serif" font-size="14.00">.</text>
</g>
<!-- node_5&#45;&gt;node_6 -->
<g id="edge18" class="edge">
<title>node_5&#45;&gt;node_6</title>
<path fill="none" stroke="black" d="M54.62,-227.49C54.62,-215.85 54.62,-200.24 54.62,-186.93"/>
<polygon fill="black" stroke="black" points="58.12,-186.87 54.62,-176.87 51.12,-186.87 58.12,-186.87"/>
<text text-anchor="middle" x="59.62" y="-198.49" font-family="Times,serif" font-size="14.00">n</text>
</g>
<!-- node_7 -->
<g id="node8" class="node">
<title>node_7</title>
<ellipse fill="none" stroke="black" cx="54.62" cy="-44.85" rx="44.69" ry="44.69"/>
<text text-anchor="middle" x="54.62" y="-41.15" font-family="Times,serif" font-size="14.00">fucking</text>
</g>
<!-- node_6&#45;&gt;node_7 -->
<g id="edge19" class="edge">
<title>node_6&#45;&gt;node_7</title>
<path fill="none" stroke="black" d="M54.62,-140.22C54.62,-129.23 54.62,-114.42 54.62,-99.78"/>
<polygon fill="black" stroke="black" points="58.12,-99.73 54.62,-89.73 51.12,-99.73 58.12,-99.73"/>
<text text-anchor="middle" x="59.62" y="-111.49" font-family="Times,serif" font-size="14.00">g</text>
</g>
</g>
</svg>
